Coordinates
version=1
nRows=12
nColumns=42
inDegrees=yes

Units are S.I. units (second, meters, Newtons, ...)
If the header above contains a line with 'inDegrees', this indicates whether rotational values are in degrees (yes) or radians (no).

endheader
time	pelvis_tilt	pelvis_list	pelvis_rotation	pelvis_tx	pelvis_ty	pelvis_tz	hip_flexion_r	hip_adduction_r	hip_rotation_r	knee_angle_r	knee_adduction_r	knee_angle_r_beta	ankle_angle_r	subtalar_angle_r	mtp_angle_r	hip_flexion_l	hip_adduction_l	hip_rotation_l	knee_angle_l	knee_adduction_l	knee_angle_l_beta	ankle_angle_l	subtalar_angle_l	mtp_angle_l	lumbar_extension	lumbar_bending	lumbar_rotation	arm_flex_r	arm_add_r	arm_rot_r	elbow_flex_r	pro_sup_r	wrist_flex_r	wrist_dev_r	arm_flex_l	arm_add_l	arm_rot_l	elbow_flex_l	pro_sup_l	wrist_flex_l	wrist_dev_l
      0.40000000	      7.36770322	     -2.93043666	     10.90337403	     -1.08956093	      0.87195785	      0.19280574	     -0.11703850	      8.68536142	     -0.93942847	     14.80278348	      2.26028317	      0.25835731	     17.24542095	    -13.42997001	     -9.69896112	     13.33008616	     -0.47803647	      3.98895778	     63.54922211	     -8.13843457	      1.10914316	     16.10191695	    -17.87163316	     -9.69896112	    -36.42053172	      9.13792157	     -4.33251714	     15.35289776	    -12.25666747	      0.85091102	     37.88852892	     90.00000001	      0.00000000	      0.00000000	     15.58629854	    -13.31699485	     -3.02494806	     37.94699038	     90.00000001	      0.00000000	      0.00000000
      0.41000000	      7.36734146	     -2.67118326	     10.77491367	     -1.08107711	      0.87224055	      0.19350513	     -0.75870625	      8.60213868	     -0.92364277	     14.93858966	      2.18582602	      0.26072758	     17.95917135	    -13.18927208	     -9.63748452	     14.29893871	      0.09077887	      3.70307867	     62.38071362	     -8.29779824	      1.08874884	     16.22403895	    -17.87920392	     -9.63748452	    -36.50540434	      8.77654213	     -4.20949946	     16.09058564	    -12.46335201	      1.09981288	     38.15313423	     90.00000001	      0.00000000	      0.00000000	     15.16571214	    -13.14336835	     -3.02919597	     37.21701153	     90.00000001	      0.00000000	      0.00000000
      0.42000000	      7.27632647	     -2.59249072	     10.69764385	     -1.07265338	      0.87207547	      0.19423816	     -1.24211519	      8.79777809	     -0.99447687	     15.06096425	      1.89609987	      0.26286341	     18.43496850	    -12.96747477	     -9.60561896	     15.45417282	      0.43546007	      3.56725253	     61.16307372	     -8.32337480	      1.06749702	     16.42053961	    -17.73474114	     -9.60561896	    -36.45978001	      8.59981768	     -4.08171450	     16.80332367	    -12.63705067	      1.20900729	     38.52558511	     90.00000001	      0.00000000	      0.00000000	     14.58512772	    -12.99587297	     -3.03352179	     36.78708483	     90.00000001	      0.00000000	      0.00000000
      0.43000000	      7.46504628	     -2.20567642	     10.44890518	     -1.06394016	      0.87267412	      0.19475473	     -2.26339179	      8.53298699	     -0.56604395	     14.95725793	      1.98172762	      0.26105340	     19.10772215	    -12.83268275	     -9.52707497	     15.91754548	      1.10623964	      3.30138995	     59.34571833	     -8.31260198	      1.03577818	     16.22263756	    -17.80599696	     -9.52707497	    -36.74240289	      8.10968007	     -3.95079922	     17.56070147	    -12.96823336	      1.88695351	     38.85435302	     90.00000001	      0.00000000	      0.00000000	     14.28027922	    -12.73385109	     -3.42388954	     35.77166883	     90.00000001	      0.00000000	      0.00000000
      0.44000000	      7.42260891	     -2.09784945	     10.30095871	     -1.05546047	      0.87242188	      0.19534175	     -2.83360623	      8.66136669	     -0.38508046	     15.05013940	      1.78034908	      0.26267449	     19.71949604	    -12.78458508	     -9.47968116	     16.83572050	      1.43470731	      3.28578860	     57.66660681	     -8.07268357	      1.00647216	     16.28508744	    -17.72437923	     -9.47968116	    -36.74501783	      7.90387335	     -3.80396994	     18.29269548	    -13.18526715	      2.18838660	     39.20264674	     90.00000001	      0.00000000	      0.00000000	     13.75796193	    -12.56460310	     -3.58929947	     35.19861226	     90.00000001	      0.00000000	      0.00000000
      0.45000000	      7.47828476	     -1.91421134	     10.15968635	     -1.04688893	      0.87234270	      0.19569629	     -3.63285765	      8.63753902	     -0.01783634	     14.97373858	      1.77131914	      0.26134104	     20.20671391	    -12.76850970	     -9.41466513	     17.48719291	      1.84789048	      3.37085528	     55.65695148	     -7.75367365	      0.97139705	     16.14406875	    -17.69025093	     -9.41466513	    -36.82806451	      7.64061627	     -3.70917372	     19.05632568	    -13.49516164	      2.73814643	     39.57538104	     90.00000001	      0.00000000	      0.00000000	     13.32959663	    -12.30558367	     -4.00479811	     34.45463317	     90.00000001	      0.00000000	      0.00000000
      0.46000000	      7.26084322	     -2.04824417	     10.15637463	     -1.03853706	      0.87128826	      0.19603929	     -3.92938079	      9.02421643	     -0.09954446	     15.09178404	      1.48821439	      0.26340132	     20.59292008	    -12.52319415	     -9.38548606	     18.73043339	      1.88296498	      3.26873816	     53.89738951	     -7.55032412	      0.94068691	     16.19170588	    -17.32916377	     -9.38548606	    -36.56503540	      7.71229921	     -3.61964880	     19.75924767	    -13.69724998	      2.82722794	     40.00838658	     90.00000001	      0.00000000	      0.00000000	     12.65315736	    -12.14538050	     -4.06780795	     34.16847457	     90.00000001	      0.00000000	      0.00000000
      0.47000000	      7.50712587	     -1.76977312	     10.01232737	     -1.02975693	      0.87149124	      0.19604832	     -5.17010098	      8.90047023	      0.57220586	     14.63865890	      1.51678111	      0.25549280	     21.05756412	    -12.77721550	     -9.29342874	     18.85134396	      2.35898898	      3.45802445	     51.30108977	     -7.07264360	      0.89537293	     15.85578538	    -17.54396509	     -9.29342874	    -36.84932498	      7.42630755	     -3.60002195	     20.52153250	    -14.06773664	      3.80080553	     40.41777890	     90.00000001	      0.00000000	      0.00000000	     12.33029593	    -11.82868814	     -5.04096001	     33.23725040	     90.00000001	      0.00000000	      0.00000000
      0.48000000	      7.40381696	     -1.79154084	      9.88679174	     -1.02130080	      0.87057444	      0.19633454	     -5.67628812	      9.13253065	      0.74447903	     14.70140756	      1.31694700	      0.25658797	     21.66779982	    -12.75420555	     -9.24575477	     19.65974757	      2.40945932	      3.38974422	     49.00329305	     -6.60285863	      0.85526881	     15.85647476	    -17.27190977	     -9.24575477	    -36.72955408	      7.36810133	     -3.46411638	     21.24768820	    -14.30034013	      4.08783376	     40.82072170	     90.00000001	      0.00000000	      0.00000000	     11.79595324	    -11.64464775	     -5.31230956	     32.71902681	     90.00000001	      0.00000000	      0.00000000
      0.49000000	      7.17005931	     -1.98352600	      9.92886242	     -1.01294924	      0.86913708	      0.19627475	     -6.02155110	      9.56880726	      0.66788287	     14.69576351	      0.99157171	      0.25648946	     22.13099061	    -12.51984857	     -9.21533588	     20.71473307	      2.37560839	      3.16300573	     46.73966577	     -6.40896300	      0.81576106	     15.83076180	    -16.85390231	     -9.21533588	    -36.42736195	      7.55239139	     -3.37992573	     21.91711118	    -14.50575543	      4.25337478	     41.25906677	     90.00000001	      0.00000000	      0.00000000	     11.19020433	    -11.41226762	     -5.48100504	     32.39333012	     90.00000001	      0.00000000	      0.00000000
      0.50000000	      7.42585364	     -1.75791232	      9.79599735	     -1.00406577	      0.86898866	      0.19598535	     -7.31373242	      9.35237938	      1.03365595	     14.17263420	      1.22669462	      0.24735913	     22.59991898	    -12.31606443	     -9.15223887	     20.61158751	      2.66386334	      3.02254350	     43.64933373	     -5.93650217	      0.76182459	     15.49339017	    -16.71011700	     -9.15223887	    -36.68303127	      7.34954864	     -3.39036499	     22.63706236	    -14.86174311	      5.04643719	     41.75078094	     90.00000001	      0.00000000	      0.00000000	     10.85504775	    -11.14337901	     -6.44660118	     31.56568234	     90.00000001	      0.00000000	      0.00000000
      0.51000000	      7.14097885	     -2.04298892	      9.83658866	     -0.99568374	      0.86717427	      0.19589934	     -7.60931776	      9.90730444	      0.88206389	     14.12524474	      0.82133793	      0.24653203	     23.07825442	    -12.06192550	     -9.12282371	     21.67685943	      2.43485083	      2.53216987	     41.29702487	     -5.68446424	      0.72076906	     15.43261695	    -16.06120692	     -9.12282371	    -36.30615498	      7.62069328	     -3.29390965	     23.26749591	    -15.05090450	      5.17935595	     42.20335956	     90.00000001	      0.00000000	      0.00000000	     10.22905303	    -10.96245782	     -6.63446278	     31.32418499	     90.00000001	      0.00000000	      0.00000000
